<svg width="420" height="120" viewBox="0 0 420 120" fill="none" xmlns="http://www.w3.org/2000/svg" role="img" aria-labelledby="logoTitle logoDesc">
  <title id="logoTitle">Neo Neko Ramen Logo</title>
  <desc id="logoDesc">A neon panda ramen bowl logo with Neo Neko Ramen wordmark.</desc>
  <rect width="420" height="120" rx="8" fill="#100F14"/>
  <g filter="url(#neonGlow)">
    <circle cx="61" cy="57" r="41" fill="#FFF7ED"/>
    <circle cx="35" cy="31" r="15" fill="#111820"/>
    <circle cx="86" cy="31" r="15" fill="#111820"/>
    <circle cx="46" cy="53" r="10" fill="#111820"/>
    <circle cx="75" cy="53" r="10" fill="#111820"/>
    <circle cx="49" cy="54" r="3" fill="#FFF7ED"/>
    <circle cx="78" cy="54" r="3" fill="#FFF7ED"/>
    <path d="M56 63C58 61 64 61 66 63C65 67 57 67 56 63Z" fill="#111820"/>
    <path d="M48 76C56 84 68 84 76 76" stroke="#111820" stroke-width="5" stroke-linecap="round"/>
    <path d="M28 81C42 101 80 103 96 81" stroke="#FF3D81" stroke-width="7" stroke-linecap="round"/>
    <path d="M23 82H99" stroke="#25D7FF" stroke-width="6" stroke-linecap="round"/>
    <path d="M42 89C46 93 51 93 55 89M62 89C66 93 71 93 75 89" stroke="#D8FF54" stroke-width="4" stroke-linecap="round"/>
    <path d="M29 42C18 35 15 25 19 15M93 42C104 35 107 25 103 15" stroke="#25D7FF" stroke-width="6" stroke-linecap="round"/>
  </g>
  <g>
    <text x="128" y="47" fill="#25D7FF" font-family="Arial, Helvetica, sans-serif" font-size="18" font-weight="800" letter-spacing="2">NEO NEKO</text>
    <text x="128" y="85" fill="#FFF7ED" font-family="Arial, Helvetica, sans-serif" font-size="42" font-weight="900">RAMEN</text>
    <path d="M300 39H386" stroke="#FF3D81" stroke-width="4" stroke-linecap="round"/>
    <path d="M300 80H358" stroke="#D8FF54" stroke-width="4" stroke-linecap="round"/>
    <circle cx="397" cy="39" r="5" fill="#25D7FF"/>
    <circle cx="369" cy="80" r="5" fill="#FFB23F"/>
  </g>
  <defs>
    <filter id="neonGlow" x="0" y="0" width="122" height="120" filterUnits="userSpaceOnUse" color-interpolation-filters="sRGB">
      <feFlood flood-opacity="0" result="BackgroundImageFix"/>
      <feColorMatrix in="SourceAlpha" type="matrix" values="0 0 0 0 0 0 0 0 0 0 0 0 0 0 0 0 0 0 127 0" result="hardAlpha"/>
      <feOffset/>
      <feGaussianBlur stdDeviation="5"/>
      <feComposite in2="hardAlpha" operator="out"/>
      <feColorMatrix type="matrix" values="0 0 0 0 0.145 0 0 0 0 0.843 0 0 0 0 1 0 0 0 0.75 0"/>
      <feBlend mode="normal" in2="BackgroundImageFix" result="effect1_dropShadow"/>
      <feBlend mode="normal" in="SourceGraphic" in2="effect1_dropShadow" result="shape"/>
    </filter>
  </defs>
</svg>
