<svg width="64" height="64" viewBox="0 0 64 64" fill="none" xmlns="http://www.w3.org/2000/svg" role="img" aria-label="Neo Neko Ramen favicon">
  <rect width="64" height="64" rx="12" fill="#100F14"/>
  <circle cx="32" cy="29" r="20" fill="#FFF7ED"/>
  <circle cx="19" cy="16" r="8" fill="#111820"/>
  <circle cx="45" cy="16" r="8" fill="#111820"/>
  <circle cx="25" cy="28" r="5" fill="#111820"/>
  <circle cx="39" cy="28" r="5" fill="#111820"/>
  <path d="M29 35C31 33 34 33 36 35C35 38 30 38 29 35Z" fill="#111820"/>
  <path d="M15 43C23 55 43 55 51 43" stroke="#FF3D81" stroke-width="5" stroke-linecap="round"/>
  <path d="M13 43H51" stroke="#25D7FF" stroke-width="4" stroke-linecap="round"/>
  <path d="M23 48C26 51 29 51 32 48M34 48C37 51 40 51 43 48" stroke="#D8FF54" stroke-width="3" stroke-linecap="round"/>
</svg>
